<?xml version="1.0" encoding="utf-8" standalone="no"?>
<!DOCTYPE svg PUBLIC "-//W3C//DTD SVG 1.1//EN"
  "http://www.w3.org/Graphics/SVG/1.1/DTD/svg11.dtd">
<!-- Created with matplotlib (http://matplotlib.org/) -->
<svg height="398pt" version="1.1" viewBox="0 0 424 398" width="424pt" xmlns="http://www.w3.org/2000/svg" xmlns:xlink="http://www.w3.org/1999/xlink">
 <defs>
  <style type="text/css">
*{stroke-linecap:butt;stroke-linejoin:round;}
  </style>
 </defs>
 <g id="figure_1">
  <g id="patch_1">
   <path d="
M0 398.194
L424.968 398.194
L424.968 0
L0 0
z
" style="fill:#ffffff;"/>
  </g>
  <g id="axes_1">
   <g id="patch_2">
    <path d="
M55.2169 358.639
L400.817 358.639
L400.817 13.0387
L55.2169 13.0387
z
" style="fill:#ffffff;"/>
   </g>
   <g id="line2d_1">
    <path clip-path="url(#pa2617f8497)" d="
M55.2169 108.213
L76.0241 108.531
L96.8313 109.161
L109.003 109.783
L121.174 110.703
L129.81 111.605
L138.446 112.782
L145.144 113.928
L151.842 115.317
L158.3 116.919
L164.412 118.7
L170.147 120.621
L176.052 122.851
L182.318 125.476
L189.959 128.945
L203.557 135.169
L209.386 137.487
L214.264 139.115
L218.46 140.245
L222.14 141.023
L226.435 141.693
L231.063 142.168
L236.536 142.48
L244.08 142.65
L260.398 142.712
L309.664 142.896
L329.518 143.165
L337.17 143.402
L343.868 143.789
L347.626 144.165
L350.964 144.687
L353.969 145.421
L356.7 146.468
L357.977 147.154
L359.202 147.979
L360.38 148.973
L361.513 150.173
L362.604 151.621
L363.658 153.364
L364.675 155.454
L365.66 157.935
L366.613 160.841
L367.537 164.176
L369.303 171.952
L371.772 184.862
L376.847 212.72
L378.152 222.107
L378.784 227.812
L379.403 234.469
L380.604 251.094
L382.32 281.558
L383.412 300.369
L384.465 314.959
L385.483 325.349
L386.467 332.581
L387.42 337.667
L388.344 341.333
L389.24 344.048
L390.11 346.112
L391.37 348.395
L392.579 350.036
L393.741 351.261
L395.224 352.472
L396.98 353.552
L398.959 354.458
L400.817 355.105
L400.817 355.105" style="fill:none;stroke:#aa0000;stroke-linecap:square;stroke-width:2;"/>
   </g>
   <g id="line2d_2">
    <path clip-path="url(#pa2617f8497)" d="
M55.2169 56.3829
L76.0241 56.7572
L96.8313 57.5073
L109.003 58.2593
L117.638 59.0132
L124.337 59.7689
L132.213 60.9054
L138.446 62.0453
L143.604 63.1882
L149.34 64.716
L154.153 66.2476
L158.3 67.782
L162.789 69.7024
L166.692 71.6236
L170.147 73.5438
L173.827 75.8435
L177.105 78.135
L180.525 80.7931
L184.01 83.8032
L187.5 87.144
L190.954 90.7848
L193.457 93.6329
L196.318 97.0995
L201.333 103.669
L207.566 112.455
L214.264 121.949
L218.46 127.424
L220.962 130.366
L223.273 132.809
L225.418 134.818
L227.42 136.456
L229.297 137.782
L231.909 139.302
L234.311 140.39
L236.536 141.162
L239.267 141.852
L242.364 142.364
L246.225 142.722
L251.438 142.928
L261.037 143.017
L300.183 143.271
L314.823 143.585
L323.459 143.984
L329.194 144.469
L331.697 144.783
L334.558 145.266
L337.17 145.872
L339.573 146.634
L341.797 147.593
L343.868 148.795
L345.806 150.295
L347.626 152.156
L349.341 154.446
L350.964 157.229
L352.504 160.553
L353.969 164.432
L355.365 168.827
L356.7 173.64
L359.202 183.95
L362.604 199.386
L364.675 209.431
L366.613 220.136
L367.537 226.194
L368.433 233.04
L369.303 240.873
L370.971 259.421
L374.052 297.969
L375.482 312.574
L376.847 323.279
L378.152 330.903
L379.403 336.35
L380.604 340.311
L381.759 343.258
L382.871 345.503
L383.943 347.25
L385.483 349.227
L386.947 350.678
L388.344 351.78
L390.11 352.883
L392.181 353.879
L394.491 354.724
L397.319 355.496
L400.817 356.187
L400.817 356.187" style="fill:none;stroke:#aa0000;stroke-linecap:square;stroke-width:2;"/>
   </g>
   <g id="line2d_3">
    <path clip-path="url(#pa2617f8497)" d="
M55.2169 126.21
L76.0241 126.383
L88.1955 126.553
L109.003 127.056
L124.337 127.706
L136.508 128.485
L146.609 129.373
L155.244 130.346
L163.611 131.504
L172.043 132.895
L181.435 134.684
L209.386 140.22
L215.729 141.111
L222.14 141.763
L228.373 142.167
L235.812 142.418
L247.243 142.537
L323.061 142.936
L334.558 143.198
L341.797 143.534
L347.626 144.061
L350.964 144.587
L353.969 145.329
L355.365 145.813
L356.7 146.393
L357.977 147.09
L359.202 147.931
L360.38 148.947
L361.513 150.177
L362.604 151.667
L363.658 153.47
L364.675 155.642
L365.66 158.239
L366.613 161.305
L367.537 164.856
L368.433 168.869
L370.149 177.986
L372.551 192.917
L374.052 203.219
L375.482 214.494
L376.847 228.18
L378.152 245.709
L379.403 266.759
L381.187 297.692
L382.32 313.281
L383.412 324.34
L384.465 331.977
L385.483 337.304
L386.467 341.113
L387.42 343.916
L388.344 346.036
L389.24 347.679
L390.536 349.534
L391.778 350.897
L393.358 352.224
L394.86 353.189
L396.636 354.073
L398.638 354.834
L400.817 355.467
L400.817 355.467" style="fill:none;stroke:#aa0000;stroke-linecap:square;stroke-width:2;"/>
   </g>
   <g id="line2d_4">
    <path clip-path="url(#pa2617f8497)" d="
M55.2169 57.7624
L76.0241 58.1833
L88.1955 58.6047
L103.53 59.4491
L113.63 60.2957
L121.174 61.1441
L127.198 61.9944
L134.437 63.2727
L140.266 64.5541
L145.144 65.8382
L150.617 67.5533
L155.244 69.2706
L159.253 70.9888
L163.611 73.1356
L167.416 75.2786
L170.792 77.4149
L174.399 79.9655
L177.618 82.4971
L180.984 85.4196
L184.418 88.7088
L187.864 92.3303
L191.278 96.2378
L193.457 98.8897
L198.93 106.031
L214.264 126.959
L217.125 130.318
L219.737 133.057
L222.14 135.261
L224.364 137.019
L226.435 138.408
L228.373 139.5
L231.063 140.707
L233.532 141.535
L236.536 142.244
L239.912 142.744
L244.08 143.072
L249.645 143.246
L262.275 143.338
L290.082 143.575
L304.191 143.895
L313.2 144.301
L319.675 144.81
L324.238 145.374
L327.86 146.023
L331.09 146.833
L331.697 147.018
L334.558 148.071
L337.17 149.374
L339.573 150.975
L341.797 152.927
L343.868 155.282
L345.806 158.082
L347.626 161.348
L349.341 165.058
L350.964 169.144
L353.969 177.942
L362.604 205.573
L364.675 212.892
L365.66 216.901
L366.613 221.329
L367.537 226.33
L368.433 232.046
L369.303 238.572
L370.971 253.949
L373.311 279.68
L375.482 302.511
L376.847 314.404
L378.152 323.625
L379.403 330.608
L380.604 335.855
L381.759 339.813
L382.871 342.826
L383.943 345.151
L384.978 346.973
L386.467 349.037
L387.885 350.549
L389.24 351.691
L390.956 352.827
L392.971 353.845
L395.224 354.702
L397.986 355.48
L400.817 356.069
L400.817 356.069" style="fill:none;stroke:#aa0000;stroke-linecap:square;stroke-width:2;"/>
   </g>
   <g id="line2d_5">
    <path clip-path="url(#pa2617f8497)" d="
M55.2169 114.092
L76.0241 114.367
L96.8313 114.91
L109.003 115.446
L121.174 116.236
L129.81 117.009
L138.446 118.014
L146.609 119.229
L153.02 120.398
L159.253 121.74
L165.951 123.43
L172.043 125.199
L178.619 127.345
L185.998 130.001
L205.628 137.257
L211.101 138.928
L215.729 140.099
L219.737 140.912
L224.364 141.619
L229.297 142.126
L235.071 142.465
L242.364 142.644
L256.62 142.709
L315.858 142.883
L331.697 143.13
L339.573 143.444
L343.868 143.763
L347.626 144.222
L350.964 144.895
L352.504 145.346
L353.969 145.901
L355.365 146.587
L356.7 147.44
L357.977 148.507
L359.202 149.842
L360.38 151.515
L361.513 153.603
L362.604 156.184
L363.658 159.33
L364.675 163.085
L365.66 167.447
L367.537 177.659
L372.551 208.293
L374.052 215.575
L375.482 221.302
L376.847 225.775
L378.152 229.286
L379.403 232.071
L380.604 234.307
L382.32 236.913
L383.943 238.881
L385.483 240.406
L387.42 241.962
L389.24 243.143
L391.37 244.262
L393.741 245.258
L396.636 246.211
L399.903 247.037
L400.817 247.231
L400.817 247.231" style="fill:none;stroke:#aa0000;stroke-linecap:square;stroke-width:2;"/>
   </g>
   <g id="line2d_6">
    <path clip-path="url(#pa2617f8497)" d="
M55.2169 107.998
L76.0241 108.127
L88.1955 108.262
L109.003 108.681
L124.337 109.25
L136.508 109.968
L145.144 110.686
L153.02 111.547
L160.177 112.547
L166.692 113.68
L172.65 114.941
L178.123 116.319
L183.596 117.936
L188.578 119.636
L193.457 121.522
L198.93 123.899
L205.628 127.146
L215.729 132.448
L222.14 135.715
L226.435 137.676
L230.193 139.154
L233.532 140.24
L237.242 141.176
L240.544 141.775
L244.08 142.202
L248.227 142.482
L254.339 142.643
L288.857 143.147
L294.538 143.55
L298.417 144.052
L301.029 144.566
L303.431 145.224
L305.656 146.049
L307.727 147.062
L309.664 148.28
L311.484 149.716
L313.2 151.374
L314.823 153.254
L316.363 155.347
L318.3 158.441
L320.12 161.838
L321.836 165.478
L323.851 170.269
L326.104 176.19
L329.518 185.873
L337.17 207.735
L341.797 219.83
L343.868 224.74
L345.806 228.962
L347.626 232.552
L349.341 235.576
L350.964 238.099
L352.504 240.184
L353.969 241.898
L355.365 243.298
L356.7 244.438
L357.977 245.362
L360.38 246.711
L362.604 247.586
L364.675 248.156
L367.537 248.687
L371.772 249.171
L377.507 249.565
L386.467 249.93
L399.903 250.231
L400.817 250.245
L400.817 250.245" style="fill:none;stroke:#0000aa;stroke-linecap:square;stroke-width:2;"/>
   </g>
   <g id="line2d_7">
    <path clip-path="url(#pa2617f8497)" d="
M55.2169 56.1828
L76.0241 56.3781
L88.1955 56.5791
L103.53 56.9894
L117.638 57.6164
L127.198 58.2526
L136.508 59.1118
L143.604 59.9814
L150.617 61.0811
L156.298 62.1933
L161.943 63.5426
L166.692 64.9058
L171.424 66.5112
L175.511 68.1299
L179.587 69.9924
L183.176 71.8646
L186.758 73.9775
L190.294 76.3273
L193.457 78.673
L196.318 81.0083
L198.93 83.3272
L203.557 87.8945
L207.566 92.336
L211.101 96.6193
L215.729 102.692
L220.962 110.039
L230.193 123.184
L233.532 127.565
L236.536 131.144
L239.267 134.013
L241.77 136.273
L244.08 138.022
L246.225 139.352
L248.227 140.348
L250.555 141.231
L252.716 141.819
L255.118 142.262
L258.049 142.579
L262.275 142.781
L270.453 142.904
L281.844 143.137
L288.857 143.483
L293.484 143.911
L297.493 144.522
L300.183 145.13
L302.652 145.89
L304.932 146.82
L307.052 147.939
L309.032 149.261
L310.89 150.794
L312.639 152.544
L314.292 154.508
L315.858 156.68
L317.827 159.874
L319.675 163.369
L321.416 167.11
L323.459 172.038
L325.74 178.152
L328.866 187.3
L337.17 212.122
L339.573 218.59
L341.797 224.095
L343.868 228.736
L345.806 232.61
L347.626 235.817
L349.341 238.454
L350.964 240.61
L352.504 242.363
L353.969 243.782
L355.365 244.924
L356.7 245.837
L359.202 247.139
L361.513 247.957
L363.658 248.48
L366.613 248.961
L370.971 249.395
L377.507 249.767
L387.42 250.079
L400.817 250.306
L400.817 250.306" style="fill:none;stroke:#0000aa;stroke-linecap:square;stroke-width:2;"/>
   </g>
   <g id="line2d_8">
    <path clip-path="url(#pa2617f8497)" d="
M55.2169 126.091
L96.8313 126.312
L121.174 126.703
L136.508 127.177
L149.34 127.804
L159.253 128.5
L168.122 129.332
L176.583 130.357
L184.418 131.543
L191.917 132.911
L198.93 134.393
L209.386 136.866
L220.962 139.582
L226.435 140.65
L231.909 141.473
L237.242 142.009
L242.947 142.326
L250.555 142.488
L270.453 142.588
L302.652 142.832
L309.664 143.085
L313.751 143.448
L316.363 143.89
L318.3 144.417
L320.12 145.158
L321.416 145.895
L322.658 146.819
L323.851 147.959
L324.998 149.341
L326.104 150.986
L327.169 152.908
L328.534 155.909
L329.839 159.407
L331.09 163.382
L331.697 165.541
L334.558 177.901
L337.17 192.379
L339.573 207.978
L341.797 223.788
L345.806 254.353
L350.964 294.6
L352.504 305.63
L353.969 315.219
L355.365 323.372
L356.7 330.18
L357.977 335.785
L359.202 340.347
L360.38 344.026
L361.513 346.974
L362.604 349.324
L363.658 351.195
L364.675 352.684
L365.66 353.872
L366.613 354.821
L368.433 356.188
L370.149 357.063
L371.772 357.62
L374.052 358.091
L376.847 358.365
L381.187 358.513
L392.579 358.598
L400.817 358.615
L400.817 358.615" style="fill:none;stroke:#0000aa;stroke-linecap:square;stroke-width:2;"/>
   </g>
   <g id="line2d_9">
    <path clip-path="url(#pa2617f8497)" d="
M55.2169 57.5256
L76.0241 57.7319
L88.1955 57.9445
L103.53 58.3787
L117.638 59.0433
L127.198 59.7183
L136.508 60.6307
L143.604 61.555
L150.617 62.7249
L156.298 63.9092
L161.073 65.1062
L165.951 66.5575
L170.147 68.0228
L174.399 69.7471
L178.123 71.4841
L181.88 73.4807
L185.611 75.736
L188.929 77.9949
L192.231 80.5017
L193.457 81.5018
L196.318 83.9917
L198.93 86.4608
L203.557 91.3112
L207.566 96.0059
L211.101 100.506
L215.729 106.825
L230.193 127.229
L233.532 131.277
L235.812 133.727
L237.932 135.737
L239.912 137.364
L241.77 138.666
L244.08 139.985
L246.225 140.929
L248.227 141.591
L250.555 142.135
L253.13 142.513
L256.62 142.778
L261.97 142.921
L283.384 143.314
L291.26 143.719
L296.54 144.216
L300.183 144.751
L303.431 145.441
L306.362 146.316
L308.387 147.114
L310.283 148.047
L312.067 149.129
L313.751 150.369
L315.345 151.774
L316.859 153.351
L318.765 155.723
L320.558 158.399
L322.25 161.364
L323.851 164.596
L325.74 168.963
L327.516 173.621
L329.518 179.472
L331.697 186.478
L334.558 196.546
L337.17 206.599
L339.573 216.819
L341.797 227.473
L343.868 238.713
L345.806 250.493
L349.341 274.655
L353.969 307.263
L355.365 316.116
L356.7 323.792
L357.977 330.311
L359.202 335.751
L360.38 340.223
L361.513 343.856
L362.604 346.783
L363.658 349.129
L364.675 351.008
L365.66 352.513
L366.613 353.72
L367.537 354.691
L369.303 356.096
L370.971 357.001
L372.551 357.579
L374.776 358.071
L377.507 358.357
L381.759 358.511
L392.579 358.597
L400.817 358.614
L400.817 358.614" style="fill:none;stroke:#0000aa;stroke-linecap:square;stroke-width:2;"/>
   </g>
   <g id="line2d_10">
    <path clip-path="url(#pa2617f8497)" d="
M55.2169 113.905
L76.0241 114.016
L88.1955 114.132
L109.003 114.493
L124.337 114.985
L136.508 115.603
L146.609 116.344
L155.244 117.204
L162.789 118.179
L169.487 119.262
L176.052 120.56
L181.88 121.941
L187.5 123.498
L193.155 125.303
L198.93 127.391
L205.628 130.088
L225.418 138.375
L229.297 139.664
L232.731 140.611
L236.536 141.426
L240.544 142.022
L244.631 142.393
L249.645 142.619
L258.396 142.745
L278.506 142.987
L287.58 143.321
L292.393 143.691
L296.54 144.244
L299.313 144.817
L301.851 145.559
L304.191 146.5
L306.362 147.669
L308.387 149.088
L310.283 150.777
L312.067 152.749
L313.751 155.007
L315.345 157.549
L316.859 160.364
L318.3 163.435
L320.12 167.879
L321.836 172.652
L323.851 178.946
L326.104 186.733
L329.839 200.673
L331.697 207.621
L334.558 217.639
L337.17 225.551
L339.573 231.549
L341.797 236.001
L343.868 239.28
L345.806 241.692
L347.626 243.472
L349.341 244.791
L350.964 245.772
L352.504 246.507
L355.365 247.49
L357.977 248.09
L361.513 248.635
L366.613 249.135
L374.052 249.58
L384.465 249.95
L399.903 250.253
L400.817 250.266
L400.817 250.266" style="fill:none;stroke:#0000aa;stroke-linecap:square;stroke-width:2;"/>
   </g>
   <g id="matplotlib.axis_1">
    <g id="xtick_1">
     <g id="line2d_11">
      <path clip-path="url(#pa2617f8497)" d="
M55.2169 358.639
L55.2169 13.0387" style="fill:none;stroke:#000000;stroke-dasharray:1.000000,3.000000;stroke-dashoffset:0.0;stroke-width:0.5;"/>
     </g>
     <g id="line2d_12">
      <defs>
       <path d="
M0 0
L0 -4" id="m93b0483c22" style="stroke:#000000;stroke-width:0.5;"/>
      </defs>
      <g>
       <use style="stroke:#000000;stroke-width:0.5;" x="55.216875" xlink:href="#m93b0483c22" y="358.63875"/>
      </g>
     </g>
     <g id="line2d_13">
      <defs>
       <path d="
M0 0
L0 4" id="m741efc42ff" style="stroke:#000000;stroke-width:0.5;"/>
      </defs>
      <g>
       <use style="stroke:#000000;stroke-width:0.5;" x="55.216875" xlink:href="#m741efc42ff" y="13.03875"/>
      </g>
     </g>
     <g id="text_1">
      <!-- 1e0.0 -->
      <defs>
       <path d="
M23.875 14.8906
L36.1875 14.8906
L36.1875 0
L23.875 0
z
" id="BitstreamVeraSansMono-Roman-2e"/>
       <path d="
M13.1875 8.29688
L28.5156 8.29688
L28.5156 64.0156
L12.0156 60.2969
L12.0156 69.2812
L28.4219 72.9062
L38.2812 72.9062
L38.2812 8.29688
L53.4219 8.29688
L53.4219 0
L13.1875 0
z
" id="BitstreamVeraSansMono-Roman-31"/>
       <path d="
M23.5781 36.625
Q23.5781 39.3125 25.4531 41.2656
Q27.3438 43.2188 29.9844 43.2188
Q32.7188 43.2188 34.6719 41.2656
Q36.625 39.3125 36.625 36.625
Q36.625 33.8906 34.6875 31.9844
Q32.7656 30.0781 29.9844 30.0781
Q27.25 30.0781 25.4062 31.9375
Q23.5781 33.7969 23.5781 36.625
M30.0781 66.4062
Q23.1875 66.4062 19.7969 58.9844
Q16.4062 51.5625 16.4062 36.375
Q16.4062 21.2344 19.7969 13.8125
Q23.1875 6.39062 30.0781 6.39062
Q37.0156 6.39062 40.4062 13.8125
Q43.7969 21.2344 43.7969 36.375
Q43.7969 51.5625 40.4062 58.9844
Q37.0156 66.4062 30.0781 66.4062
M30.0781 74.2188
Q41.75 74.2188 47.7344 64.6406
Q53.7188 55.0781 53.7188 36.375
Q53.7188 17.7188 47.7344 8.14062
Q41.75 -1.42188 30.0781 -1.42188
Q18.4062 -1.42188 12.4531 8.14062
Q6.5 17.7188 6.5 36.375
Q6.5 55.0781 12.4531 64.6406
Q18.4062 74.2188 30.0781 74.2188" id="BitstreamVeraSansMono-Roman-30"/>
       <path d="
M54.2969 29.5938
L54.2969 25.2031
L15.375 25.2031
L15.375 24.9062
Q15.375 15.9688 20.0312 11.0781
Q24.7031 6.20312 33.2031 6.20312
Q37.5 6.20312 42.1875 7.5625
Q46.875 8.9375 52.2031 11.7188
L52.2031 2.78125
Q47.0781 0.6875 42.3125 -0.359375
Q37.5469 -1.42188 33.1094 -1.42188
Q20.3594 -1.42188 13.1719 6.21875
Q6 13.875 6 27.2969
Q6 40.375 13.0312 48.1875
Q20.0625 56 31.7812 56
Q42.2344 56 48.2656 48.9219
Q54.2969 41.8438 54.2969 29.5938
M45.3125 32.2344
Q45.125 40.1406 41.5781 44.2656
Q38.0312 48.3906 31.3906 48.3906
Q24.9062 48.3906 20.7031 44.0938
Q16.5 39.7969 15.7188 32.1719
z
" id="BitstreamVeraSansMono-Roman-65"/>
      </defs>
      <g transform="translate(38.2659375 371.820625)scale(0.12 -0.12)">
       <use xlink:href="#BitstreamVeraSansMono-Roman-31"/>
       <use x="60.205078125" xlink:href="#BitstreamVeraSansMono-Roman-65"/>
       <use x="120.41015625" xlink:href="#BitstreamVeraSansMono-Roman-30"/>
       <use x="180.615234375" xlink:href="#BitstreamVeraSansMono-Roman-2e"/>
       <use x="240.8203125" xlink:href="#BitstreamVeraSansMono-Roman-30"/>
      </g>
     </g>
    </g>
    <g id="xtick_2">
     <g id="line2d_14">
      <path clip-path="url(#pa2617f8497)" d="
M124.337 358.639
L124.337 13.0387" style="fill:none;stroke:#000000;stroke-dasharray:1.000000,3.000000;stroke-dashoffset:0.0;stroke-width:0.5;"/>
     </g>
     <g id="line2d_15">
      <g>
       <use style="stroke:#000000;stroke-width:0.5;" x="124.336875" xlink:href="#m93b0483c22" y="358.63875"/>
      </g>
     </g>
     <g id="line2d_16">
      <g>
       <use style="stroke:#000000;stroke-width:0.5;" x="124.336875" xlink:href="#m741efc42ff" y="13.03875"/>
      </g>
     </g>
     <g id="text_2">
      <!-- 1e1.0 -->
      <g transform="translate(107.3859375 371.820625)scale(0.12 -0.12)">
       <use xlink:href="#BitstreamVeraSansMono-Roman-31"/>
       <use x="60.205078125" xlink:href="#BitstreamVeraSansMono-Roman-65"/>
       <use x="120.41015625" xlink:href="#BitstreamVeraSansMono-Roman-31"/>
       <use x="180.615234375" xlink:href="#BitstreamVeraSansMono-Roman-2e"/>
       <use x="240.8203125" xlink:href="#BitstreamVeraSansMono-Roman-30"/>
      </g>
     </g>
    </g>
    <g id="xtick_3">
     <g id="line2d_17">
      <path clip-path="url(#pa2617f8497)" d="
M193.457 358.639
L193.457 13.0387" style="fill:none;stroke:#000000;stroke-dasharray:1.000000,3.000000;stroke-dashoffset:0.0;stroke-width:0.5;"/>
     </g>
     <g id="line2d_18">
      <g>
       <use style="stroke:#000000;stroke-width:0.5;" x="193.456875" xlink:href="#m93b0483c22" y="358.63875"/>
      </g>
     </g>
     <g id="line2d_19">
      <g>
       <use style="stroke:#000000;stroke-width:0.5;" x="193.456875" xlink:href="#m741efc42ff" y="13.03875"/>
      </g>
     </g>
     <g id="text_3">
      <!-- 1e2.0 -->
      <defs>
       <path d="
M18.2188 8.29688
L51.7031 8.29688
L51.7031 0
L7.42188 0
L7.42188 8.29688
Q16.5469 17.9219 23.375 25.2969
Q30.2188 32.6719 32.8125 35.6875
Q37.7031 41.6562 39.4062 45.3438
Q41.1094 49.0312 41.1094 52.875
Q41.1094 58.9844 37.5156 62.4531
Q33.9375 65.9219 27.6875 65.9219
Q23.25 65.9219 18.3594 64.3125
Q13.4844 62.7031 8.01562 59.4219
L8.01562 69.3906
Q13.0312 71.7812 17.8906 73
Q22.75 74.2188 27.4844 74.2188
Q38.1875 74.2188 44.7031 68.5312
Q51.2188 62.8438 51.2188 53.6094
Q51.2188 48.9219 49.0469 44.2344
Q46.875 39.5469 42 33.8906
Q39.2656 30.7188 34.0625 25.0938
Q28.8594 19.4844 18.2188 8.29688" id="BitstreamVeraSansMono-Roman-32"/>
      </defs>
      <g transform="translate(176.5059375 371.820625)scale(0.12 -0.12)">
       <use xlink:href="#BitstreamVeraSansMono-Roman-31"/>
       <use x="60.205078125" xlink:href="#BitstreamVeraSansMono-Roman-65"/>
       <use x="120.41015625" xlink:href="#BitstreamVeraSansMono-Roman-32"/>
       <use x="180.615234375" xlink:href="#BitstreamVeraSansMono-Roman-2e"/>
       <use x="240.8203125" xlink:href="#BitstreamVeraSansMono-Roman-30"/>
      </g>
     </g>
    </g>
    <g id="xtick_4">
     <g id="line2d_20">
      <path clip-path="url(#pa2617f8497)" d="
M262.577 358.639
L262.577 13.0387" style="fill:none;stroke:#000000;stroke-dasharray:1.000000,3.000000;stroke-dashoffset:0.0;stroke-width:0.5;"/>
     </g>
     <g id="line2d_21">
      <g>
       <use style="stroke:#000000;stroke-width:0.5;" x="262.576875" xlink:href="#m93b0483c22" y="358.63875"/>
      </g>
     </g>
     <g id="line2d_22">
      <g>
       <use style="stroke:#000000;stroke-width:0.5;" x="262.576875" xlink:href="#m741efc42ff" y="13.03875"/>
      </g>
     </g>
     <g id="text_4">
      <!-- 1e3.0 -->
      <defs>
       <path d="
M37.8906 39.0156
Q45.0625 37.1094 48.875 32.25
Q52.6875 27.3906 52.6875 20.125
Q52.6875 10.0625 45.9219 4.3125
Q39.1562 -1.42188 27.2031 -1.42188
Q22.1719 -1.42188 16.9375 -0.484375
Q11.7188 0.4375 6.6875 2.20312
L6.6875 12.0156
Q11.6719 9.42188 16.5 8.15625
Q21.3438 6.89062 26.125 6.89062
Q34.2344 6.89062 38.5781 10.5469
Q42.9219 14.2031 42.9219 21.0938
Q42.9219 27.4375 38.5781 31.1719
Q34.2344 34.9062 26.8125 34.9062
L19.2812 34.9062
L19.2812 43.0156
L26.8125 43.0156
Q33.5938 43.0156 37.4062 45.9844
Q41.2188 48.9688 41.2188 54.2969
Q41.2188 59.9062 37.6719 62.9062
Q34.125 65.9219 27.5938 65.9219
Q23.25 65.9219 18.6094 64.9375
Q13.9688 63.9688 8.89062 62.0156
L8.89062 71.0938
Q14.7969 72.6562 19.4062 73.4375
Q24.0312 74.2188 27.5938 74.2188
Q38.2344 74.2188 44.6094 68.875
Q50.9844 63.5312 50.9844 54.6875
Q50.9844 48.6875 47.625 44.6719
Q44.2812 40.6719 37.8906 39.0156" id="BitstreamVeraSansMono-Roman-33"/>
      </defs>
      <g transform="translate(245.6259375 371.820625)scale(0.12 -0.12)">
       <use xlink:href="#BitstreamVeraSansMono-Roman-31"/>
       <use x="60.205078125" xlink:href="#BitstreamVeraSansMono-Roman-65"/>
       <use x="120.41015625" xlink:href="#BitstreamVeraSansMono-Roman-33"/>
       <use x="180.615234375" xlink:href="#BitstreamVeraSansMono-Roman-2e"/>
       <use x="240.8203125" xlink:href="#BitstreamVeraSansMono-Roman-30"/>
      </g>
     </g>
    </g>
    <g id="xtick_5">
     <g id="line2d_23">
      <path clip-path="url(#pa2617f8497)" d="
M331.697 358.639
L331.697 13.0387" style="fill:none;stroke:#000000;stroke-dasharray:1.000000,3.000000;stroke-dashoffset:0.0;stroke-width:0.5;"/>
     </g>
     <g id="line2d_24">
      <g>
       <use style="stroke:#000000;stroke-width:0.5;" x="331.696875" xlink:href="#m93b0483c22" y="358.63875"/>
      </g>
     </g>
     <g id="line2d_25">
      <g>
       <use style="stroke:#000000;stroke-width:0.5;" x="331.696875" xlink:href="#m741efc42ff" y="13.03875"/>
      </g>
     </g>
     <g id="text_5">
      <!-- 1e4.0 -->
      <defs>
       <path d="
M35.8906 63.9219
L12.8906 25.3906
L35.8906 25.3906
z

M34.2812 72.9062
L45.7031 72.9062
L45.7031 25.3906
L55.4219 25.3906
L55.4219 17.3906
L45.7031 17.3906
L45.7031 0
L35.8906 0
L35.8906 17.3906
L4.98438 17.3906
L4.98438 26.7031
z
" id="BitstreamVeraSansMono-Roman-34"/>
      </defs>
      <g transform="translate(314.7459375 371.820625)scale(0.12 -0.12)">
       <use xlink:href="#BitstreamVeraSansMono-Roman-31"/>
       <use x="60.205078125" xlink:href="#BitstreamVeraSansMono-Roman-65"/>
       <use x="120.41015625" xlink:href="#BitstreamVeraSansMono-Roman-34"/>
       <use x="180.615234375" xlink:href="#BitstreamVeraSansMono-Roman-2e"/>
       <use x="240.8203125" xlink:href="#BitstreamVeraSansMono-Roman-30"/>
      </g>
     </g>
    </g>
    <g id="xtick_6">
     <g id="line2d_26">
      <path clip-path="url(#pa2617f8497)" d="
M400.817 358.639
L400.817 13.0387" style="fill:none;stroke:#000000;stroke-dasharray:1.000000,3.000000;stroke-dashoffset:0.0;stroke-width:0.5;"/>
     </g>
     <g id="line2d_27">
      <g>
       <use style="stroke:#000000;stroke-width:0.5;" x="400.816875" xlink:href="#m93b0483c22" y="358.63875"/>
      </g>
     </g>
     <g id="line2d_28">
      <g>
       <use style="stroke:#000000;stroke-width:0.5;" x="400.816875" xlink:href="#m741efc42ff" y="13.03875"/>
      </g>
     </g>
     <g id="text_6">
      <!-- 1e5.0 -->
      <defs>
       <path d="
M10.1094 72.9062
L47.0156 72.9062
L47.0156 64.5938
L19.0938 64.5938
L19.0938 46.6875
Q21.1875 47.4688 23.3125 47.8281
Q25.4375 48.1875 27.5938 48.1875
Q38.9219 48.1875 45.5625 41.5
Q52.2031 34.8125 52.2031 23.3906
Q52.2031 11.8594 45.2344 5.21875
Q38.2812 -1.42188 26.2188 -1.42188
Q20.4062 -1.42188 15.5938 -0.640625
Q10.7969 0.140625 6.98438 1.70312
L6.98438 11.7188
Q11.4688 9.28125 16.0156 8.07812
Q20.5625 6.89062 25.2969 6.89062
Q33.4531 6.89062 37.8594 11.1875
Q42.2812 15.4844 42.2812 23.3906
Q42.2812 31.2031 37.7188 35.5469
Q33.1562 39.8906 25 39.8906
Q21.0469 39.8906 17.2812 38.9844
Q13.5312 38.0938 10.1094 36.2812
z
" id="BitstreamVeraSansMono-Roman-35"/>
      </defs>
      <g transform="translate(383.8659375 371.820625)scale(0.12 -0.12)">
       <use xlink:href="#BitstreamVeraSansMono-Roman-31"/>
       <use x="60.205078125" xlink:href="#BitstreamVeraSansMono-Roman-65"/>
       <use x="120.41015625" xlink:href="#BitstreamVeraSansMono-Roman-35"/>
       <use x="180.615234375" xlink:href="#BitstreamVeraSansMono-Roman-2e"/>
       <use x="240.8203125" xlink:href="#BitstreamVeraSansMono-Roman-30"/>
      </g>
     </g>
    </g>
    <g id="text_7">
     <!-- #epoch -->
     <defs>
      <path d="
M18.3125 6.89062
L18.3125 -20.7969
L9.28125 -20.7969
L9.28125 54.6875
L18.3125 54.6875
L18.3125 47.7031
Q20.5625 51.7656 24.2969 53.875
Q28.0312 56 32.9062 56
Q42.8281 56 48.4688 48.3281
Q54.1094 40.6719 54.1094 27.0938
Q54.1094 13.7656 48.4375 6.17188
Q42.7812 -1.42188 32.9062 -1.42188
Q27.9375 -1.42188 24.1875 0.703125
Q20.4531 2.82812 18.3125 6.89062
M44.6719 27.2969
Q44.6719 37.75 41.375 43.0625
Q38.0938 48.3906 31.5938 48.3906
Q25.0469 48.3906 21.6719 43.0469
Q18.3125 37.7031 18.3125 27.2969
Q18.3125 16.9375 21.6719 11.5625
Q25.0469 6.20312 31.5938 6.20312
Q38.0938 6.20312 41.375 11.5156
Q44.6719 16.8438 44.6719 27.2969" id="BitstreamVeraSansMono-Roman-70"/>
      <path d="
M51.3125 33.8906
L51.3125 0
L42.2812 0
L42.2812 33.8906
Q42.2812 41.2656 39.6875 44.7188
Q37.1094 48.1875 31.5938 48.1875
Q25.2969 48.1875 21.8906 43.7188
Q18.5 39.2656 18.5 30.9062
L18.5 0
L9.51562 0
L9.51562 75.9844
L18.5 75.9844
L18.5 46.4844
Q20.9062 51.1719 25 53.5781
Q29.1094 56 34.7188 56
Q43.0625 56 47.1875 50.5
Q51.3125 45.0156 51.3125 33.8906" id="BitstreamVeraSansMono-Roman-68"/>
      <path d="
M30.0781 48.3906
Q23.25 48.3906 19.7344 43.0625
Q16.2188 37.75 16.2188 27.2969
Q16.2188 16.8906 19.7344 11.5469
Q23.25 6.20312 30.0781 6.20312
Q36.9688 6.20312 40.4844 11.5469
Q44 16.8906 44 27.2969
Q44 37.75 40.4844 43.0625
Q36.9688 48.3906 30.0781 48.3906
M30.0781 56
Q41.4531 56 47.4844 48.625
Q53.5156 41.2656 53.5156 27.2969
Q53.5156 13.2812 47.5 5.92188
Q41.5 -1.42188 30.0781 -1.42188
Q18.7031 -1.42188 12.6875 5.92188
Q6.6875 13.2812 6.6875 27.2969
Q6.6875 41.2656 12.6875 48.625
Q18.7031 56 30.0781 56" id="BitstreamVeraSansMono-Roman-6f"/>
      <path d="
M33.4062 71.7812
L28.3281 51.5156
L40.2812 51.5156
L45.4062 71.7812
L53.2188 71.7812
L48.0938 51.5156
L60.0156 51.5156
L60.0156 44
L46.2969 44
L42.1875 27.6875
L54.3906 27.6875
L54.3906 20.2188
L40.2812 20.2188
L35.2031 0
L27.3906 0
L32.5156 20.2188
L20.5156 20.2188
L15.375 0
L7.625 0
L12.7031 20.2188
L0.09375 20.2188
L0.09375 27.6875
L14.5938 27.6875
L18.7031 44
L5.71875 44
L5.71875 51.5156
L20.5156 51.5156
L25.5938 71.7812
z

M38.4844 44
L26.5156 44
L22.4062 27.6875
L34.4219 27.6875
z
" id="BitstreamVeraSansMono-Roman-23"/>
      <path d="
M51.8125 2.78125
Q48.1875 0.6875 44.3594 -0.359375
Q40.5312 -1.42188 36.5312 -1.42188
Q23.8281 -1.42188 16.6719 6.1875
Q9.51562 13.8125 9.51562 27.2969
Q9.51562 40.7656 16.6719 48.375
Q23.8281 56 36.5312 56
Q40.4844 56 44.2344 54.9688
Q48 53.9531 51.8125 51.8125
L51.8125 42.3906
Q48.25 45.5625 44.6562 46.9688
Q41.0625 48.3906 36.5312 48.3906
Q28.0781 48.3906 23.5312 42.9219
Q19 37.4531 19 27.2969
Q19 17.1875 23.5625 11.6875
Q28.125 6.20312 36.5312 6.20312
Q41.2188 6.20312 44.9219 7.64062
Q48.6406 9.07812 51.8125 12.1094
z
" id="BitstreamVeraSansMono-Roman-63"/>
     </defs>
     <g transform="translate(206.8828125 388.498125)scale(0.12 -0.12)">
      <use xlink:href="#BitstreamVeraSansMono-Roman-23"/>
      <use x="60.205078125" xlink:href="#BitstreamVeraSansMono-Roman-65"/>
      <use x="120.41015625" xlink:href="#BitstreamVeraSansMono-Roman-70"/>
      <use x="180.615234375" xlink:href="#BitstreamVeraSansMono-Roman-6f"/>
      <use x="240.8203125" xlink:href="#BitstreamVeraSansMono-Roman-63"/>
      <use x="301.025390625" xlink:href="#BitstreamVeraSansMono-Roman-68"/>
     </g>
    </g>
   </g>
   <g id="matplotlib.axis_2">
    <g id="ytick_1">
     <g id="line2d_29">
      <path clip-path="url(#pa2617f8497)" d="
M55.2169 358.639
L400.817 358.639" style="fill:none;stroke:#000000;stroke-dasharray:1.000000,3.000000;stroke-dashoffset:0.0;stroke-width:0.5;"/>
     </g>
     <g id="line2d_30">
      <defs>
       <path d="
M0 0
L4 0" id="m728421d6d4" style="stroke:#000000;stroke-width:0.5;"/>
      </defs>
      <g>
       <use style="stroke:#000000;stroke-width:0.5;" x="55.216875" xlink:href="#m728421d6d4" y="358.63875"/>
      </g>
     </g>
     <g id="line2d_31">
      <defs>
       <path d="
M0 0
L-4 0" id="mcb0005524f" style="stroke:#000000;stroke-width:0.5;"/>
      </defs>
      <g>
       <use style="stroke:#000000;stroke-width:0.5;" x="400.816875" xlink:href="#mcb0005524f" y="358.63875"/>
      </g>
     </g>
     <g id="text_8">
      <!-- 0.00 -->
      <g transform="translate(23.8775 361.981875)scale(0.12 -0.12)">
       <use xlink:href="#BitstreamVeraSansMono-Roman-30"/>
       <use x="60.205078125" xlink:href="#BitstreamVeraSansMono-Roman-2e"/>
       <use x="120.41015625" xlink:href="#BitstreamVeraSansMono-Roman-30"/>
       <use x="180.615234375" xlink:href="#BitstreamVeraSansMono-Roman-30"/>
      </g>
     </g>
    </g>
    <g id="ytick_2">
     <g id="line2d_32">
      <path clip-path="url(#pa2617f8497)" d="
M55.2169 315.439
L400.817 315.439" style="fill:none;stroke:#000000;stroke-dasharray:1.000000,3.000000;stroke-dashoffset:0.0;stroke-width:0.5;"/>
     </g>
     <g id="line2d_33">
      <g>
       <use style="stroke:#000000;stroke-width:0.5;" x="55.216875" xlink:href="#m728421d6d4" y="315.43875"/>
      </g>
     </g>
     <g id="line2d_34">
      <g>
       <use style="stroke:#000000;stroke-width:0.5;" x="400.816875" xlink:href="#mcb0005524f" y="315.43875"/>
      </g>
     </g>
     <g id="text_9">
      <!-- 0.05 -->
      <g transform="translate(24.059375 318.781875)scale(0.12 -0.12)">
       <use xlink:href="#BitstreamVeraSansMono-Roman-30"/>
       <use x="60.205078125" xlink:href="#BitstreamVeraSansMono-Roman-2e"/>
       <use x="120.41015625" xlink:href="#BitstreamVeraSansMono-Roman-30"/>
       <use x="180.615234375" xlink:href="#BitstreamVeraSansMono-Roman-35"/>
      </g>
     </g>
    </g>
    <g id="ytick_3">
     <g id="line2d_35">
      <path clip-path="url(#pa2617f8497)" d="
M55.2169 272.239
L400.817 272.239" style="fill:none;stroke:#000000;stroke-dasharray:1.000000,3.000000;stroke-dashoffset:0.0;stroke-width:0.5;"/>
     </g>
     <g id="line2d_36">
      <g>
       <use style="stroke:#000000;stroke-width:0.5;" x="55.216875" xlink:href="#m728421d6d4" y="272.23875"/>
      </g>
     </g>
     <g id="line2d_37">
      <g>
       <use style="stroke:#000000;stroke-width:0.5;" x="400.816875" xlink:href="#mcb0005524f" y="272.23875"/>
      </g>
     </g>
     <g id="text_10">
      <!-- 0.10 -->
      <g transform="translate(23.8775 275.581875)scale(0.12 -0.12)">
       <use xlink:href="#BitstreamVeraSansMono-Roman-30"/>
       <use x="60.205078125" xlink:href="#BitstreamVeraSansMono-Roman-2e"/>
       <use x="120.41015625" xlink:href="#BitstreamVeraSansMono-Roman-31"/>
       <use x="180.615234375" xlink:href="#BitstreamVeraSansMono-Roman-30"/>
      </g>
     </g>
    </g>
    <g id="ytick_4">
     <g id="line2d_38">
      <path clip-path="url(#pa2617f8497)" d="
M55.2169 229.039
L400.817 229.039" style="fill:none;stroke:#000000;stroke-dasharray:1.000000,3.000000;stroke-dashoffset:0.0;stroke-width:0.5;"/>
     </g>
     <g id="line2d_39">
      <g>
       <use style="stroke:#000000;stroke-width:0.5;" x="55.216875" xlink:href="#m728421d6d4" y="229.03875"/>
      </g>
     </g>
     <g id="line2d_40">
      <g>
       <use style="stroke:#000000;stroke-width:0.5;" x="400.816875" xlink:href="#mcb0005524f" y="229.03875"/>
      </g>
     </g>
     <g id="text_11">
      <!-- 0.15 -->
      <g transform="translate(24.059375 232.381875)scale(0.12 -0.12)">
       <use xlink:href="#BitstreamVeraSansMono-Roman-30"/>
       <use x="60.205078125" xlink:href="#BitstreamVeraSansMono-Roman-2e"/>
       <use x="120.41015625" xlink:href="#BitstreamVeraSansMono-Roman-31"/>
       <use x="180.615234375" xlink:href="#BitstreamVeraSansMono-Roman-35"/>
      </g>
     </g>
    </g>
    <g id="ytick_5">
     <g id="line2d_41">
      <path clip-path="url(#pa2617f8497)" d="
M55.2169 185.839
L400.817 185.839" style="fill:none;stroke:#000000;stroke-dasharray:1.000000,3.000000;stroke-dashoffset:0.0;stroke-width:0.5;"/>
     </g>
     <g id="line2d_42">
      <g>
       <use style="stroke:#000000;stroke-width:0.5;" x="55.216875" xlink:href="#m728421d6d4" y="185.83875"/>
      </g>
     </g>
     <g id="line2d_43">
      <g>
       <use style="stroke:#000000;stroke-width:0.5;" x="400.816875" xlink:href="#mcb0005524f" y="185.83875"/>
      </g>
     </g>
     <g id="text_12">
      <!-- 0.20 -->
      <g transform="translate(23.8775 189.181875)scale(0.12 -0.12)">
       <use xlink:href="#BitstreamVeraSansMono-Roman-30"/>
       <use x="60.205078125" xlink:href="#BitstreamVeraSansMono-Roman-2e"/>
       <use x="120.41015625" xlink:href="#BitstreamVeraSansMono-Roman-32"/>
       <use x="180.615234375" xlink:href="#BitstreamVeraSansMono-Roman-30"/>
      </g>
     </g>
    </g>
    <g id="ytick_6">
     <g id="line2d_44">
      <path clip-path="url(#pa2617f8497)" d="
M55.2169 142.639
L400.817 142.639" style="fill:none;stroke:#000000;stroke-dasharray:1.000000,3.000000;stroke-dashoffset:0.0;stroke-width:0.5;"/>
     </g>
     <g id="line2d_45">
      <g>
       <use style="stroke:#000000;stroke-width:0.5;" x="55.216875" xlink:href="#m728421d6d4" y="142.63875"/>
      </g>
     </g>
     <g id="line2d_46">
      <g>
       <use style="stroke:#000000;stroke-width:0.5;" x="400.816875" xlink:href="#mcb0005524f" y="142.63875"/>
      </g>
     </g>
     <g id="text_13">
      <!-- 0.25 -->
      <g transform="translate(24.059375 145.981875)scale(0.12 -0.12)">
       <use xlink:href="#BitstreamVeraSansMono-Roman-30"/>
       <use x="60.205078125" xlink:href="#BitstreamVeraSansMono-Roman-2e"/>
       <use x="120.41015625" xlink:href="#BitstreamVeraSansMono-Roman-32"/>
       <use x="180.615234375" xlink:href="#BitstreamVeraSansMono-Roman-35"/>
      </g>
     </g>
    </g>
    <g id="ytick_7">
     <g id="line2d_47">
      <path clip-path="url(#pa2617f8497)" d="
M55.2169 99.4387
L400.817 99.4387" style="fill:none;stroke:#000000;stroke-dasharray:1.000000,3.000000;stroke-dashoffset:0.0;stroke-width:0.5;"/>
     </g>
     <g id="line2d_48">
      <g>
       <use style="stroke:#000000;stroke-width:0.5;" x="55.216875" xlink:href="#m728421d6d4" y="99.43875"/>
      </g>
     </g>
     <g id="line2d_49">
      <g>
       <use style="stroke:#000000;stroke-width:0.5;" x="400.816875" xlink:href="#mcb0005524f" y="99.43875"/>
      </g>
     </g>
     <g id="text_14">
      <!-- 0.30 -->
      <g transform="translate(23.8775 102.781875)scale(0.12 -0.12)">
       <use xlink:href="#BitstreamVeraSansMono-Roman-30"/>
       <use x="60.205078125" xlink:href="#BitstreamVeraSansMono-Roman-2e"/>
       <use x="120.41015625" xlink:href="#BitstreamVeraSansMono-Roman-33"/>
       <use x="180.615234375" xlink:href="#BitstreamVeraSansMono-Roman-30"/>
      </g>
     </g>
    </g>
    <g id="ytick_8">
     <g id="line2d_50">
      <path clip-path="url(#pa2617f8497)" d="
M55.2169 56.2387
L400.817 56.2387" style="fill:none;stroke:#000000;stroke-dasharray:1.000000,3.000000;stroke-dashoffset:0.0;stroke-width:0.5;"/>
     </g>
     <g id="line2d_51">
      <g>
       <use style="stroke:#000000;stroke-width:0.5;" x="55.216875" xlink:href="#m728421d6d4" y="56.23875"/>
      </g>
     </g>
     <g id="line2d_52">
      <g>
       <use style="stroke:#000000;stroke-width:0.5;" x="400.816875" xlink:href="#mcb0005524f" y="56.23875"/>
      </g>
     </g>
     <g id="text_15">
      <!-- 0.35 -->
      <g transform="translate(24.059375 59.581875)scale(0.12 -0.12)">
       <use xlink:href="#BitstreamVeraSansMono-Roman-30"/>
       <use x="60.205078125" xlink:href="#BitstreamVeraSansMono-Roman-2e"/>
       <use x="120.41015625" xlink:href="#BitstreamVeraSansMono-Roman-33"/>
       <use x="180.615234375" xlink:href="#BitstreamVeraSansMono-Roman-35"/>
      </g>
     </g>
    </g>
    <g id="ytick_9">
     <g id="line2d_53">
      <path clip-path="url(#pa2617f8497)" d="
M55.2169 13.0387
L400.817 13.0387" style="fill:none;stroke:#000000;stroke-dasharray:1.000000,3.000000;stroke-dashoffset:0.0;stroke-width:0.5;"/>
     </g>
     <g id="line2d_54">
      <g>
       <use style="stroke:#000000;stroke-width:0.5;" x="55.216875" xlink:href="#m728421d6d4" y="13.03875"/>
      </g>
     </g>
     <g id="line2d_55">
      <g>
       <use style="stroke:#000000;stroke-width:0.5;" x="400.816875" xlink:href="#mcb0005524f" y="13.03875"/>
      </g>
     </g>
     <g id="text_16">
      <!-- 0.40 -->
      <g transform="translate(23.8775 16.381875)scale(0.12 -0.12)">
       <use xlink:href="#BitstreamVeraSansMono-Roman-30"/>
       <use x="60.205078125" xlink:href="#BitstreamVeraSansMono-Roman-2e"/>
       <use x="120.41015625" xlink:href="#BitstreamVeraSansMono-Roman-34"/>
       <use x="180.615234375" xlink:href="#BitstreamVeraSansMono-Roman-30"/>
      </g>
     </g>
    </g>
    <g id="text_17">
     <!-- loss -->
     <defs>
      <path d="
M31.2031 19.8281
Q31.2031 13.7656 33.4219 10.6875
Q35.6406 7.625 39.9844 7.625
L50.4844 7.625
L50.4844 0
L39.1094 0
Q31.0625 0 26.6406 5.17188
Q22.2188 10.3594 22.2188 19.8281
L22.2188 69.4844
L7.8125 69.4844
L7.8125 76.5156
L31.2031 76.5156
z
" id="BitstreamVeraSansMono-Roman-6c"/>
      <path d="
M47.5156 52.7812
L47.5156 44
Q43.6562 46.2344 39.75 47.3594
Q35.8438 48.4844 31.7812 48.4844
Q25.6875 48.4844 22.6719 46.5
Q19.6719 44.5312 19.6719 40.4844
Q19.6719 36.8125 21.9219 35
Q24.1719 33.2031 33.1094 31.5
L36.7188 30.8125
Q43.4062 29.5469 46.8438 25.7344
Q50.2969 21.9219 50.2969 15.8281
Q50.2969 7.71875 44.5312 3.14062
Q38.7656 -1.42188 28.5156 -1.42188
Q24.4688 -1.42188 20.0156 -0.5625
Q15.5781 0.296875 10.4062 2
L10.4062 11.2812
Q15.4375 8.6875 20.0156 7.39062
Q24.6094 6.10938 28.7188 6.10938
Q34.6719 6.10938 37.9375 8.51562
Q41.2188 10.9375 41.2188 15.2812
Q41.2188 21.5312 29.25 23.9219
L28.8594 24.0312
L25.4844 24.7031
Q17.7188 26.2188 14.1562 29.8125
Q10.5938 33.4062 10.5938 39.5938
Q10.5938 47.4688 15.9062 51.7344
Q21.2344 56 31.1094 56
Q35.5 56 39.5469 55.1875
Q43.6094 54.3906 47.5156 52.7812" id="BitstreamVeraSansMono-Roman-73"/>
     </defs>
     <g transform="translate(16.381875 199.224375)rotate(-90.0)scale(0.12 -0.12)">
      <use xlink:href="#BitstreamVeraSansMono-Roman-6c"/>
      <use x="60.205078125" xlink:href="#BitstreamVeraSansMono-Roman-6f"/>
      <use x="120.41015625" xlink:href="#BitstreamVeraSansMono-Roman-73"/>
      <use x="180.615234375" xlink:href="#BitstreamVeraSansMono-Roman-73"/>
     </g>
    </g>
   </g>
   <g id="patch_3">
    <path d="
M55.2169 13.0387
L400.817 13.0387" style="fill:none;stroke:#000000;"/>
   </g>
   <g id="patch_4">
    <path d="
M400.817 358.639
L400.817 13.0387" style="fill:none;stroke:#000000;"/>
   </g>
   <g id="patch_5">
    <path d="
M55.2169 358.639
L400.817 358.639" style="fill:none;stroke:#000000;"/>
   </g>
   <g id="patch_6">
    <path d="
M55.2169 358.639
L55.2169 13.0387" style="fill:none;stroke:#000000;"/>
   </g>
   <g id="legend_1">
    <g id="patch_7">
     <path d="
M62.4169 351.439
L189.326 351.439
L189.326 293.173
L62.4169 293.173
L62.4169 351.439
z
" style="fill:#ffffff;stroke:#000000;"/>
    </g>
    <g id="line2d_56">
     <path d="
M78.2569 310.671
L98.4169 310.671" style="fill:none;stroke:#aa0000;stroke-linecap:square;stroke-width:2;"/>
    </g>
    <g id="line2d_57"/>
    <g id="text_18">
     <!-- PlainSGD -->
     <defs>
      <path d="
M49.4219 70.4062
L49.4219 60.4062
Q44.9219 63.2812 40.4062 64.75
Q35.8906 66.2188 31.2969 66.2188
Q24.3125 66.2188 20.2656 62.9688
Q16.2188 59.7188 16.2188 54.2031
Q16.2188 49.3594 18.875 46.8125
Q21.5312 44.2812 28.8125 42.5781
L33.9844 41.4062
Q44.2344 39.0156 48.9219 33.8906
Q53.6094 28.7656 53.6094 19.9219
Q53.6094 9.51562 47.1562 4.04688
Q40.7188 -1.42188 28.4219 -1.42188
Q23.2969 -1.42188 18.1094 -0.3125
Q12.9375 0.78125 7.71875 2.98438
L7.71875 13.4844
Q13.3281 9.90625 18.3281 8.25
Q23.3438 6.59375 28.4219 6.59375
Q35.8906 6.59375 40.0312 9.9375
Q44.1875 13.2812 44.1875 19.2812
Q44.1875 24.75 41.3281 27.625
Q38.4844 30.5156 31.3906 32.0781
L26.125 33.2969
Q15.9688 35.5938 11.375 40.2344
Q6.78125 44.875 6.78125 52.6875
Q6.78125 62.4531 13.3438 68.3281
Q19.9219 74.2188 30.8125 74.2188
Q35.0156 74.2188 39.6406 73.2656
Q44.2812 72.3125 49.4219 70.4062" id="BitstreamVeraSansMono-Roman-53"/>
      <path d="
M21.2969 8.10938
Q33.7344 8.10938 38.6719 14.2344
Q43.6094 20.3594 43.6094 36.375
Q43.6094 52.5469 38.7031 58.6719
Q33.7969 64.7969 21.2969 64.7969
L16.6094 64.7969
L16.6094 8.10938
z

M21.4844 72.9062
Q38.1875 72.9062 46.0938 64.0156
Q54 55.125 54 36.375
Q54 17.7188 46.0938 8.85938
Q38.1875 0 21.4844 0
L6.6875 0
L6.6875 72.9062
z
" id="BitstreamVeraSansMono-Roman-44"/>
      <path d="
M19.4844 64.7969
L19.4844 37.4062
L30.9062 37.4062
Q37.75 37.4062 41.5781 41.0156
Q45.4062 44.625 45.4062 51.125
Q45.4062 57.625 41.5938 61.2031
Q37.7969 64.7969 30.9062 64.7969
z

M9.625 72.9062
L30.9062 72.9062
Q43.1094 72.9062 49.4062 67.3594
Q55.7188 61.8125 55.7188 51.125
Q55.7188 40.3281 49.4375 34.8125
Q43.1719 29.2969 30.9062 29.2969
L19.4844 29.2969
L19.4844 0
L9.625 0
z
" id="BitstreamVeraSansMono-Roman-50"/>
      <path d="
M34.2812 27.4844
L31.2969 27.4844
Q23.4375 27.4844 19.4531 24.7188
Q15.4844 21.9688 15.4844 16.5
Q15.4844 11.5781 18.4531 8.84375
Q21.4375 6.10938 26.7031 6.10938
Q34.125 6.10938 38.375 11.25
Q42.625 16.4062 42.6719 25.4844
L42.6719 27.4844
z

M51.7031 31.2031
L51.7031 0
L42.6719 0
L42.6719 8.10938
Q39.7969 3.21875 35.4219 0.890625
Q31.0625 -1.42188 24.8125 -1.42188
Q16.4531 -1.42188 11.4688 3.29688
Q6.5 8.01562 6.5 15.9219
Q6.5 25.0469 12.625 29.7812
Q18.75 34.5156 30.6094 34.5156
L42.6719 34.5156
L42.6719 35.9375
Q42.625 42.4844 39.3438 45.4375
Q36.0781 48.3906 28.9062 48.3906
Q24.3125 48.3906 19.625 47.0625
Q14.9375 45.75 10.5 43.2188
L10.5 52.2031
Q15.4844 54.1094 20.0469 55.0469
Q24.6094 56 28.9062 56
Q35.6875 56 40.5 54
Q45.3125 52 48.2969 48
Q50.1406 45.5625 50.9219 41.9688
Q51.7031 38.375 51.7031 31.2031" id="BitstreamVeraSansMono-Roman-61"/>
      <path d="
M12.5 54.6875
L35.5 54.6875
L35.5 6.98438
L53.3281 6.98438
L53.3281 0
L8.6875 0
L8.6875 6.98438
L26.5156 6.98438
L26.5156 47.7031
L12.5 47.7031
z

M26.5156 75.9844
L35.5 75.9844
L35.5 64.5938
L26.5156 64.5938
z
" id="BitstreamVeraSansMono-Roman-69"/>
      <path d="
M53.9062 6
Q49.9531 2.34375 45 0.453125
Q40.0469 -1.42188 34.2812 -1.42188
Q20.4062 -1.42188 12.6875 8.51562
Q4.98438 18.4531 4.98438 36.375
Q4.98438 54.25 12.7969 64.2344
Q20.6094 74.2188 34.5156 74.2188
Q39.1094 74.2188 43.3125 72.9219
Q47.5156 71.625 51.4219 69
L51.4219 58.8906
Q47.4688 62.6406 43.3125 64.4219
Q39.1562 66.2188 34.5156 66.2188
Q24.9062 66.2188 20.0938 58.7656
Q15.2812 51.3125 15.2812 36.375
Q15.2812 21.1875 19.9375 13.8906
Q24.6094 6.59375 34.2812 6.59375
Q37.5469 6.59375 40.0156 7.34375
Q42.4844 8.10938 44.4844 9.71875
L44.4844 29.2969
L33.8906 29.2969
L33.8906 37.4062
L53.9062 37.4062
z
" id="BitstreamVeraSansMono-Roman-47"/>
      <path d="
M51.3125 33.8906
L51.3125 0
L42.2812 0
L42.2812 33.8906
Q42.2812 41.2656 39.6875 44.7188
Q37.1094 48.1875 31.5938 48.1875
Q25.2969 48.1875 21.8906 43.7188
Q18.5 39.2656 18.5 30.9062
L18.5 0
L9.51562 0
L9.51562 54.6875
L18.5 54.6875
L18.5 46.4844
Q20.9062 51.1719 25 53.5781
Q29.1094 56 34.7188 56
Q43.0625 56 47.1875 50.5
Q51.3125 45.0156 51.3125 33.8906" id="BitstreamVeraSansMono-Roman-6e"/>
     </defs>
     <g transform="translate(109.936875 315.711)scale(0.144 -0.144)">
      <use xlink:href="#BitstreamVeraSansMono-Roman-50"/>
      <use x="60.205078125" xlink:href="#BitstreamVeraSansMono-Roman-6c"/>
      <use x="120.41015625" xlink:href="#BitstreamVeraSansMono-Roman-61"/>
      <use x="180.615234375" xlink:href="#BitstreamVeraSansMono-Roman-69"/>
      <use x="240.8203125" xlink:href="#BitstreamVeraSansMono-Roman-6e"/>
      <use x="301.025390625" xlink:href="#BitstreamVeraSansMono-Roman-53"/>
      <use x="361.23046875" xlink:href="#BitstreamVeraSansMono-Roman-47"/>
      <use x="421.435546875" xlink:href="#BitstreamVeraSansMono-Roman-44"/>
     </g>
    </g>
    <g id="line2d_58">
     <path d="
M78.2569 331.884
L98.4169 331.884" style="fill:none;stroke:#0000aa;stroke-linecap:square;stroke-width:2;"/>
    </g>
    <g id="line2d_59"/>
    <g id="text_19">
     <!-- AdaDelta -->
     <defs>
      <path d="
M30.0781 64.2031
L19.6719 26.9062
L40.4844 26.9062
z

M24.125 72.9062
L36.0781 72.9062
L58.4062 0
L48.1875 0
L42.8281 19
L17.2812 19
L12.0156 0
L1.8125 0
z
" id="BitstreamVeraSansMono-Roman-41"/>
      <path d="
M41.8906 47.7031
L41.8906 75.9844
L50.875 75.9844
L50.875 0
L41.8906 0
L41.8906 6.89062
Q39.6562 2.82812 35.9062 0.703125
Q32.1719 -1.42188 27.2969 -1.42188
Q17.3906 -1.42188 11.6875 6.26562
Q6 13.9688 6 27.4844
Q6 40.8281 11.7188 48.4062
Q17.4375 56 27.2969 56
Q32.2344 56 35.9844 53.875
Q39.75 51.7656 41.8906 47.7031
M15.4844 27.2969
Q15.4844 16.8438 18.7969 11.5156
Q22.125 6.20312 28.6094 6.20312
Q35.1094 6.20312 38.5 11.5625
Q41.8906 16.9375 41.8906 27.2969
Q41.8906 37.7031 38.5 43.0469
Q35.1094 48.3906 28.6094 48.3906
Q22.125 48.3906 18.7969 43.0625
Q15.4844 37.75 15.4844 27.2969" id="BitstreamVeraSansMono-Roman-64"/>
      <path d="
M29.9844 70.2188
L29.9844 54.6875
L50.3906 54.6875
L50.3906 47.7031
L29.9844 47.7031
L29.9844 18.0156
Q29.9844 11.9688 32.2812 9.5625
Q34.5781 7.17188 40.2812 7.17188
L50.3906 7.17188
L50.3906 0
L39.4062 0
Q29.2969 0 25.1406 4.04688
Q21 8.10938 21 18.0156
L21 47.7031
L6.39062 47.7031
L6.39062 54.6875
L21 54.6875
L21 70.2188
z
" id="BitstreamVeraSansMono-Roman-74"/>
     </defs>
     <g transform="translate(109.936875 336.924)scale(0.144 -0.144)">
      <use xlink:href="#BitstreamVeraSansMono-Roman-41"/>
      <use x="60.205078125" xlink:href="#BitstreamVeraSansMono-Roman-64"/>
      <use x="120.41015625" xlink:href="#BitstreamVeraSansMono-Roman-61"/>
      <use x="180.615234375" xlink:href="#BitstreamVeraSansMono-Roman-44"/>
      <use x="240.8203125" xlink:href="#BitstreamVeraSansMono-Roman-65"/>
      <use x="301.025390625" xlink:href="#BitstreamVeraSansMono-Roman-6c"/>
      <use x="361.23046875" xlink:href="#BitstreamVeraSansMono-Roman-74"/>
      <use x="421.435546875" xlink:href="#BitstreamVeraSansMono-Roman-61"/>
     </g>
    </g>
   </g>
  </g>
 </g>
 <defs>
  <clipPath id="pa2617f8497">
   <rect height="345.6" width="345.6" x="55.216875" y="13.03875"/>
  </clipPath>
 </defs>
</svg>
